<?xml version="1.0" standalone="no"?>
<!DOCTYPE svg PUBLIC "-//W3C//DTD SVG 20010904//EN"
 "http://www.w3.org/TR/2001/REC-SVG-20010904/DTD/svg10.dtd">
<svg version="1.0" xmlns="http://www.w3.org/2000/svg"
 width="740.000000pt" height="740.000000pt" viewBox="0 0 740.000000 740.000000"
 preserveAspectRatio="xMidYMid meet">

<g transform="translate(0.000000,740.000000) scale(0.100000,-0.100000)"
fill="#000000" stroke="none">
<path d="M2156 5163 c21 -32 61 -97 91 -144 l53 -86 0 -844 c0 -800 -1 -846
-19 -884 -23 -49 -64 -89 -115 -110 -21 -9 -36 -18 -34 -21 3 -2 169 -99 369
-214 l364 -209 5 744 5 743 272 -156 273 -157 0 -608 c0 -663 1 -647 -58 -711
-15 -16 -48 -38 -74 -51 l-47 -22 229 -132 230 -132 229 132 230 132 -47 22
c-26 13 -59 35 -74 51 -59 64 -58 48 -58 711 l0 608 93 52 c50 29 173 99 272
157 l180 105 5 -744 5 -744 365 210 c201 115 366 213 368 218 1 4 -11 11 -27
14 -40 8 -100 63 -122 112 -17 38 -19 89 -19 886 l0 845 89 140 c49 76 88 140
86 142 -1 1 -351 -198 -776 -444 -426 -246 -782 -449 -791 -452 -10 -2 -337
181 -798 447 -430 248 -783 451 -786 451 -2 0 12 -26 32 -57z"/>
</g>
</svg>
